# xmcd
#
# Track frame offsets: 
#        150
#        18545
#        35680
#        53140
#        72007
#        88540
#        103850
#        120525
#        132657
#        148850
#
# Disc length: 2235 seconds
#
# Revision: 3
# Processed by: cddbd v1.5.2PL0 Copyright (c) Steve Scherf et al.
# Submitted via: ExactAudioCopy v1.1
#
DISCID=9108b90a
DTITLE=Earl Thomas Conley - The Heart Of It All
DYEAR=1988
DGENRE=Country
TTITLE0=What She Is
TTITLE1=Love Out Loud
TTITLE2=What I'd Say
TTITLE3=You Must Not Be Drinking Enough
TTITLE4=Carol
TTITLE5=No Chance, No Dance
TTITLE6=I Love The Way He Left You
TTITLE7=Finally Friday
TTITLE8=We Believe In Happy Endings
TTITLE9=Too Far From The Heart Of It All
EXTD=
EXTT0=
EXTT1=
EXTT2=
EXTT3=
EXTT4=
EXTT5=
EXTT6=
EXTT7=
EXTT8=
EXTT9=
PLAYORDER=
